<svg xmlns="http://www.w3.org/2000/svg" width="22" height="22" viewBox="0 0 22 22" fill="none">
  <path d="M4.4375 3.125L3.125 4.4375V17.5625L4.4375 18.875H9.6875L11 17.5625V4.4375L9.6875 3.125H4.4375ZM4.4375 17.5625V4.4375H9.6875V17.5625H4.4375ZM13.625 4.4375L14.9375 3.125H18.875L20.1875 4.4375V8.375L18.875 9.6875H14.9375L13.625 8.375V4.4375ZM14.9375 4.4375V8.375H18.875V4.4375H14.9375ZM13.625 13.625L14.9375 12.3125H18.875L20.1875 13.625V17.5625L18.875 18.875H14.9375L13.625 17.5625V13.625ZM14.9375 13.625V17.5625H18.875V13.625H14.9375Z" fill="#E6D366"/>
</svg>