<svg width="29" height="29" viewBox="0 0 29 29" fill="none" xmlns="http://www.w3.org/2000/svg">
<rect x="0.5" y="28.5" width="28" height="28" rx="2.5" transform="rotate(-90 0.5 28.5)" stroke="#EDF1F3"/>
<path d="M13 20.7778C13 21.7938 13.8312 22.625 14.8472 22.625C15.8632 22.625 16.6944 21.7938 16.6944 20.7778C16.6944 19.7618 15.8632 18.9306 14.8472 18.9306C13.8312 18.9306 13 19.7618 13 20.7778ZM13 7.84722C13 8.86319 13.8312 9.69444 14.8472 9.69444C15.8632 9.69444 16.6944 8.86319 16.6944 7.84722C16.6944 6.83125 15.8632 6 14.8472 6C13.8312 6 13 6.83125 13 7.84722ZM13 14.3125C13 15.3285 13.8312 16.1597 14.8472 16.1597C15.8632 16.1597 16.6944 15.3285 16.6944 14.3125C16.6944 13.2965 15.8632 12.4653 14.8472 12.4653C13.8312 12.4653 13 13.2965 13 14.3125Z" fill="#999999"/>
</svg>
